<svg width="400" height="400" viewBox="0 0 400 400" fill="none" xmlns="http://www.w3.org/2000/svg">
<circle cx="200" cy="200" r="185" fill="white" stroke="black" stroke-width="30"/>
<path d="M163.906 79.0469C183.781 79.0469 197.094 87.4844 203.844 104.359L261.078 247.656L263.469 252.859C267.031 260.359 271.344 264.156 276.406 264.25H281.328L281.188 299.969C278.188 300.438 272.328 300.672 263.609 300.672C241.391 300.672 226.484 290.734 218.891 270.859L198.219 211.234L171.641 298H121.156L174.453 146.688L166.156 127.703C162.688 119.828 156.312 115.891 147.031 115.891L137.891 116.312L136.625 82.5625C144.594 80.2187 153.688 79.0469 163.906 79.0469Z" fill="#761414"/>
</svg>
